<svg width="833" height="848" viewBox="0 0 833 848" fill="none" xmlns="http://www.w3.org/2000/svg">
<g clip-path="url(#clip0_111_1145)">
<rect width="831.855" height="846.407" transform="translate(0.285156 0.74765)" fill="url(#paint0_linear_111_1145)"/>
<path d="M0.285156 27.1979C0.285156 20.1828 3.02396 13.4551 7.89906 8.49474C12.7742 3.53436 19.3862 0.74765 26.2806 0.74765L182.253 0.74765C189.148 0.74765 195.76 3.53436 200.635 8.49474C205.51 13.4551 208.249 20.1828 208.249 27.1979C208.249 34.2129 205.51 40.9406 200.635 45.901C195.76 50.8613 189.148 53.6481 182.253 53.6481H73.2761C61.6781 53.6481 52.2761 63.0501 52.2761 74.6481V185.899C52.2761 192.914 49.5373 199.642 44.6622 204.602C39.7871 209.563 33.1751 212.349 26.2806 212.349C19.3862 212.349 12.7742 209.563 7.89906 204.602C3.02396 199.642 0.285156 192.914 0.285156 185.899V27.1979ZM624.177 27.1979C624.177 20.1828 626.915 13.4551 631.791 8.49474C636.666 3.53436 643.278 0.74765 650.172 0.74765L806.145 0.74765C813.039 0.74765 819.651 3.53436 824.527 8.49474C829.402 13.4551 832.14 20.1828 832.14 27.1979V185.899C832.14 192.914 829.402 199.642 824.527 204.602C819.651 209.563 813.039 212.349 806.145 212.349C799.251 212.349 792.638 209.563 787.763 204.602C782.888 199.642 780.149 192.914 780.149 185.899V74.6481C780.149 63.0501 770.747 53.6481 759.149 53.6481H650.172C643.278 53.6481 636.666 50.8613 631.791 45.901C626.915 40.9406 624.177 34.2129 624.177 27.1979ZM26.2806 635.553C33.1751 635.553 39.7871 638.339 44.6622 643.3C49.5373 648.26 52.2761 654.988 52.2761 662.003V773.254C52.2761 784.852 61.6781 794.254 73.2761 794.254H182.253C189.148 794.254 195.76 797.04 200.635 802.001C205.51 806.961 208.249 813.689 208.249 820.704C208.249 827.719 205.51 834.447 200.635 839.407C195.76 844.367 189.148 847.154 182.253 847.154H26.2806C19.3862 847.154 12.7742 844.367 7.89906 839.407C3.02396 834.447 0.285156 827.719 0.285156 820.704V662.003C0.285156 654.988 3.02396 648.26 7.89906 643.3C12.7742 638.339 19.3862 635.553 26.2806 635.553ZM806.145 635.553C813.039 635.553 819.651 638.339 824.527 643.3C829.402 648.26 832.14 654.988 832.14 662.003V820.704C832.14 827.719 829.402 834.447 824.527 839.407C819.651 844.367 813.039 847.154 806.145 847.154H650.172C643.278 847.154 636.666 844.367 631.791 839.407C626.915 834.447 624.177 827.719 624.177 820.704C624.177 813.689 626.915 806.961 631.791 802.001C636.666 797.04 643.278 794.254 650.172 794.254H759.149C770.747 794.254 780.149 784.852 780.149 773.254V662.003C780.149 654.988 782.888 648.26 787.763 643.3C792.638 638.339 799.251 635.553 806.145 635.553ZM208.249 233.349C208.249 221.751 217.651 212.349 229.249 212.349H239.24C250.838 212.349 260.24 221.751 260.24 233.349V244.25C260.24 255.848 250.838 265.25 239.24 265.25H229.249C217.651 265.25 208.249 255.848 208.249 244.25V233.349Z" fill="black"/>
</g>
<defs>
<linearGradient id="paint0_linear_111_1145" x1="415.928" y1="0" x2="415.928" y2="846.407" gradientUnits="userSpaceOnUse">
<stop offset="0.9999" stop-color="#F4F2F2"/>
<stop offset="1" stop-color="#CCC0C0" stop-opacity="0"/>
</linearGradient>
<clipPath id="clip0_111_1145">
<rect width="831.855" height="846.407" fill="white" transform="translate(0.285156 0.74765)"/>
</clipPath>
</defs>
</svg>
